<?xml version="1.0" encoding="UTF-8"?>
<!DOCTYPE svg PUBLIC "-//W3C//DTD SVG 1.1//EN" "http://www.w3.org/Graphics/SVG/1.1/DTD/svg11.dtd">
<!-- Creator: CorelDRAW X8 -->
<svg xmlns="http://www.w3.org/2000/svg" xml:space="preserve" width="100%" height="100%" version="1.1" style="shape-rendering:geometricPrecision; text-rendering:geometricPrecision; image-rendering:optimizeQuality; fill-rule:evenodd; clip-rule:evenodd"
viewBox="0 0 16006 3648"
 xmlns:xlink="http://www.w3.org/1999/xlink">
 <defs>
  <style type="text/css">
   <![CDATA[
    .fil3 {fill:#96989A}
    .fil2 {fill:#373435}
    .fil0 {fill:#96989A;fill-rule:nonzero}
    .fil1 {fill:#373435;fill-rule:nonzero}
   ]]>
  </style>
 </defs>
 <g id="Layer_x0020_1">
  <metadata id="CorelCorpID_0Corel-Layer"/>
  <g id="_1902762585120">
   <polygon class="fil0" points="2942,3160 2192,3160 2192,1805 2417,1805 2417,2970 2942,2970 "/>
   <path id="1" class="fil0" d="M3933 2736l-659 0c2,90 30,159 82,208 53,49 125,73 217,73 104,0 198,-31 285,-93l0 176c-88,56 -205,83 -350,83 -142,0 -254,-44 -335,-132 -81,-88 -122,-212 -122,-371 0,-151 45,-274 134,-369 89,-95 200,-142 332,-142 133,0 235,42 308,128 72,85 108,203 108,355l0 84zm-212 -155c0,-79 -19,-140 -55,-184 -37,-44 -87,-66 -151,-66 -64,0 -117,23 -161,69 -44,47 -70,107 -80,181l447 0z"/>
   <path id="2" class="fil0" d="M5023 3082c0,355 -178,533 -536,533 -126,0 -236,-21 -330,-63l0 -200c106,60 207,91 302,91 230,0 345,-113 345,-339l0 -105 -4 0c-72,123 -181,184 -327,184 -117,0 -213,-43 -285,-129 -72,-86 -108,-202 -108,-347 0,-165 39,-295 116,-392 78,-97 184,-146 320,-146 128,0 223,52 284,156l4 0 0 -133 219 0 0 890zm-217 -365l0 -126c0,-69 -23,-127 -67,-175 -46,-49 -102,-73 -169,-73 -83,0 -149,31 -195,93 -48,61 -71,147 -71,258 0,96 22,172 68,229 45,57 105,86 179,86 75,0 137,-27 184,-82 47,-55 71,-125 71,-210z"/>
   <path id="3" class="fil0" d="M5418 1989c-35,0 -66,-12 -92,-35 -25,-24 -38,-53 -38,-89 0,-36 13,-66 38,-90 26,-24 57,-36 92,-36 38,0 69,12 95,36 26,24 39,54 39,90 0,34 -13,63 -39,87 -26,24 -57,37 -95,37zm110 1171l-219 0 0 -968 219 0 0 968z"/>
   <path id="4" class="fil0" d="M6244 3183c-150,0 -269,-45 -358,-136 -89,-90 -134,-210 -134,-360 0,-162 47,-289 140,-381 92,-91 218,-137 375,-137 152,0 270,44 354,133 84,89 127,212 127,370 0,155 -46,279 -137,372 -91,93 -214,139 -367,139zm10 -840c-86,0 -153,30 -203,90 -50,60 -75,143 -75,248 0,102 26,182 76,240 50,59 118,88 202,88 86,0 153,-29 199,-86 46,-58 70,-140 70,-246 0,-106 -24,-189 -70,-247 -46,-58 -113,-87 -199,-87z"/>
   <path id="5" class="fil0" d="M7833 3160l-219 0 0 -546c0,-181 -65,-271 -192,-271 -67,0 -122,25 -166,75 -43,50 -65,113 -65,190l0 552 -220 0 0 -968 220 0 0 160 4 0c72,-122 177,-183 313,-183 106,0 186,34 242,102 55,69 83,168 83,297l0 592z"/>
   <path id="6" class="fil1" d="M10113 3160l-223 0 0 -877c0,-72 4,-160 13,-264l-4 0c-14,59 -26,102 -37,128l-404 1013 -155 0 -406 -1005c-11,-30 -23,-75 -36,-136l-3 0c4,55 7,143 7,266l0 875 -208 0 0 -1355 317 0 356 902c27,70 45,121 53,155l5 0c23,-71 42,-124 57,-159l363 -898 305 0 0 1355z"/>
   <path id="7" class="fil1" d="M11560 3160l-246 0 -122 -345 -533 0 -118 345 -245 0 507 -1355 253 0 504 1355zm-428 -528l-188 -541c-6,-17 -12,-46 -18,-85l-4 0c-5,36 -12,64 -19,85l-186 541 415 0z"/>
   <path id="8" class="fil1" d="M12794 3160l-263 0 -216 -363c-20,-33 -39,-62 -58,-85 -18,-24 -37,-43 -56,-58 -19,-15 -40,-26 -63,-33 -23,-7 -48,-11 -77,-11l-90 0 0 550 -224 0 0 -1355 446 0c63,0 122,7 175,22 54,16 101,38 141,69 39,30 70,69 92,114 23,46 34,99 34,161 0,47 -7,92 -21,132 -14,40 -35,75 -61,106 -26,32 -57,58 -94,80 -37,22 -79,40 -124,52l0 3c24,14 45,29 64,46 18,17 35,34 52,52 16,17 32,37 48,60 17,22 34,48 54,77l241 381zm-823 -1173l0 441 187 0c34,0 67,-5 96,-16 29,-11 54,-26 76,-46 21,-20 38,-45 50,-74 12,-29 18,-62 18,-98 0,-65 -21,-116 -61,-152 -41,-37 -101,-55 -177,-55l-189 0z"/>
   <path id="9" class="fil1" d="M13977 3160l-293 0 -471 -620c-18,-23 -29,-39 -32,-47l-4 0 0 667 -225 0 0 -1355 225 0 0 637 4 0c7,-14 18,-30 32,-46l454 -591 270 0 -532 650 572 705z"/>
   <polygon id="10" class="fil1" points="14895,3160 14135,3160 14135,1805 14865,1805 14865,1996 14359,1996 14359,2380 14825,2380 14825,2570 14359,2570 14359,2970 14895,2970 "/>
   <polygon id="11" class="fil1" points="16006,1996 15617,1996 15617,3160 15392,3160 15392,1996 15003,1996 15003,1805 16006,1805 "/>
   <path class="fil2" d="M705 2544c82,0 103,0 144,0 102,20 61,0 143,-19 62,77 -61,-39 21,39l41 19c-82,-329 -123,-503 0,-833 225,-600 882,-968 1580,-793 143,38 246,96 369,135l-41 -77c82,0 41,-136 41,-213 41,-20 -21,-20 61,0 -61,-78 -307,-136 -430,-175 -185,-19 -349,-38 -534,-19 -636,58 -1108,445 -1333,968 -103,252 -185,736 -62,968z"/>
   <path class="fil2" d="M397 918c-20,58 -123,213 -164,271 -41,77 -123,232 -123,329l0 58c62,-77 164,-97 123,39 62,-19 41,-19 103,-58 0,0 0,19 0,19l20 20c21,-20 41,0 62,-20 164,-464 595,-929 1046,-1103 -20,-136 62,-213 -20,-271 -41,-39 -21,-20 -82,-20 -185,20 -616,349 -760,504l-164 213c-20,0 -20,0 -41,19z"/>
   <path class="fil2" d="M3146 492c124,39 329,174 431,252 62,58 62,77 123,96l226 -193c-61,-97 -513,-445 -697,-465l-62 58c-41,116 82,136 -21,155l0 97z"/>
  </g>
  <g id="_1902762587776">
   <path class="fil3" d="M1587 2796c62,-39 185,-136 226,-194 -21,-77 -82,-96 -123,-193 -287,-581 431,-1123 985,-775 61,39 41,39 102,78 82,-39 185,-136 226,-213 -554,-562 -1703,-233 -1703,639 0,271 123,542 287,658z"/>
   <path class="fil3" d="M1362 182c61,0 41,-19 82,20 82,58 0,135 20,271 493,-213 1211,-252 1682,19l0 -97c103,-19 -20,-39 21,-155l62 -58c-165,-174 -1047,-232 -1437,-135 -82,0 -143,19 -225,38l-205 97c0,0 0,0 0,0z"/>
   <path class="fil3" d="M213 3009l-21 -58c287,0 123,-78 308,-39 -205,-561 -226,-736 -82,-1336 -21,20 -41,0 -62,20l-20 -20c0,0 0,-19 0,-19 -62,39 -41,39 -103,58 41,-136 -61,-116 -123,-39l0 -58c-185,194 -123,1201 82,1472 0,0 0,19 0,19 0,0 21,0 21,0z"/>
   <path class="fil3" d="M213 3009c0,135 143,252 184,368 0,0 0,0 0,19l185 194c41,38 41,38 82,58l226 -194c-41,-97 -267,-251 -390,-542 -185,-39 -21,39 -308,39l21 58z"/>
   <path class="fil3" d="M705 2544c62,252 267,581 410,678 82,-39 206,-136 247,-213 -62,-58 -124,-116 -185,-213 -21,-39 -103,-194 -123,-213l-41 -19c-82,-78 41,38 -21,-39 -82,19 -41,39 -143,19 -41,0 -62,0 -144,0z"/>
   <path class="fil3" d="M3003 1092c0,20 61,58 102,78 41,38 82,77 124,96 82,-38 205,-154 225,-213 -61,-58 -287,-232 -390,-251 -82,-20 -20,-20 -61,0 0,77 41,213 -41,213l41 77z"/>
  </g>
 </g>
</svg>
