<?xml version="1.0" encoding="UTF-8"?>
<!DOCTYPE svg PUBLIC "-//W3C//DTD SVG 1.0//EN" "http://www.w3.org/TR/2001/REC-SVG-20010904/DTD/svg10.dtd">
<!-- Creator: CorelDRAW X8 -->
<svg xmlns="http://www.w3.org/2000/svg" xml:space="preserve" width="100%" height="100%" version="1.0" style="shape-rendering:geometricPrecision; text-rendering:geometricPrecision; image-rendering:optimizeQuality; fill-rule:evenodd; clip-rule:evenodd"
viewBox="0 0 1600610 364783"
 xmlns:xlink="http://www.w3.org/1999/xlink">
 <defs>
  <style type="text/css">
   <![CDATA[
    .fil3 {fill:#96989A}
    .fil2 {fill:#373435}
    .fil0 {fill:#96989A;fill-rule:nonzero}
    .fil1 {fill:#373435;fill-rule:nonzero}
   ]]>
  </style>
 </defs>
 <g id="Layer_x0020_2">
  <metadata id="CorelCorpID_0Corel-Layer"/>
  <polygon class="fil0" points="294249,316005 219193,316005 219193,180477 241684,180477 241684,297031 294249,297031 "/>
  <path id="1" class="fil0" d="M393314 273604l-65957 0c226,8971 3001,15909 8261,20781 5260,4873 12488,7293 21684,7293 10358,0 19813,-3098 28461,-9293l0 17650c-8809,5519 -20491,8293 -34979,8293 -14230,0 -25395,-4388 -33495,-13197 -8099,-8810 -12165,-21201 -12165,-37142 0,-15101 4453,-27363 13391,-36882 8906,-9487 19974,-14231 33205,-14231 13262,0 23491,4259 30752,12778 7228,8519 10842,20362 10842,35528l0 8422zm-21168 -15489c-65,-7873 -1904,-14004 -5583,-18393 -3646,-4388 -8680,-6583 -15102,-6583 -6324,0 -11648,2291 -16037,6906 -4389,4614 -7067,10616 -8067,18070l44789 0z"/>
  <path id="2" class="fil0" d="M502349 308196c0,35528 -17877,53308 -53598,53308 -12617,0 -23621,-2098 -33011,-6325l0 -20006c10584,6066 20652,9099 30171,9099 23008,0 34496,-11294 34496,-33849l0 -10552 -388 0c-7228,12294 -18135,18457 -32688,18457 -11778,0 -21297,-4291 -28525,-12907 -7196,-8615 -10810,-20200 -10810,-34689 0,-16489 3872,-29558 11617,-39271 7776,-9712 18425,-14585 31978,-14585 12778,0 22265,5195 28428,15618l388 0 0 -13294 21942 0 0 88996zm-21749 -36528l0 -12617c0,-6808 -2259,-12649 -6744,-17490 -4517,-4840 -10132,-7260 -16876,-7260 -8326,0 -14844,3098 -19523,9261 -4711,6164 -7067,14779 -7067,25847 0,9552 2259,17199 6777,22911 4485,5711 10487,8584 17909,8584 7551,0 13714,-2743 18425,-8197 4743,-5485 7099,-12488 7099,-21039z"/>
  <path id="3" class="fil0" d="M541846 198870c-3582,0 -6648,-1161 -9197,-3485 -2549,-2355 -3840,-5324 -3840,-8906 0,-3582 1291,-6583 3840,-9003 2549,-2388 5615,-3582 9197,-3582 3743,0 6873,1194 9454,3582 2582,2420 3873,5421 3873,9003 0,3388 -1291,6325 -3873,8745 -2581,2420 -5711,3646 -9454,3646zm10971 117135l-21943 0 0 -96805 21943 0 0 96805z"/>
  <path id="4" class="fil0" d="M624357 318328c-14909,0 -26848,-4517 -35754,-13585 -8938,-9035 -13391,-21039 -13391,-36012 0,-16263 4646,-28977 13940,-38141 9293,-9132 21813,-13714 37592,-13714 15134,0 26913,4453 35335,13359 8454,8874 12681,21201 12681,36980 0,15457 -4550,27848 -13649,37141 -9132,9326 -21362,13972 -36754,13972zm1065 -84027c-8584,0 -15360,3001 -20329,9003 -4970,6002 -7487,14263 -7487,24815 0,10164 2549,18167 7583,24007 5034,5841 11778,8778 20233,8778 8615,0 15263,-2873 19877,-8616 4647,-5744 6970,-13940 6970,-24557 0,-10648 -2323,-18909 -6970,-24717 -4614,-5809 -11262,-8713 -19877,-8713z"/>
  <path id="5" class="fil0" d="M783279 316005l-21910 0 0 -54566c0,-18103 -6422,-27138 -19200,-27138 -6680,0 -12197,2517 -16554,7519 -4356,5001 -6518,11326 -6518,18974l0 55211 -22040 0 0 -96805 22040 0 0 16037 387 0c7229,-12230 17716,-18361 31365,-18361 10552,0 18587,3420 24105,10261 5550,6841 8325,16716 8325,29655l0 59213z"/>
  <path id="6" class="fil1" d="M1011289 316005l-22297 0 0 -87706c0,-7196 451,-15973 1323,-26363l-387 0c-1388,5905 -2614,10164 -3679,12746l-40465 101323 -15489 0 -40562 -100549c-1129,-2969 -2355,-7486 -3614,-13520l-354 0c483,5421 742,14262 742,26557l0 87512 -20781 0 0 -135528 31655 0 35625 90255c2710,6938 4485,12101 5324,15489l452 0c2355,-7099 4227,-12391 5679,-15876l36302 -89868 30526 0 0 135528z"/>
  <path id="7" class="fil1" d="M1156046 316005l-24685 0 -12198 -34463 -53307 0 -11714 34463 -24589 0 50759 -135528 25331 0 50403 135528zm-42820 -52856l-18813 -54018c-581,-1774 -1194,-4614 -1807,-8518l-387 0c-549,3581 -1194,6421 -1872,8518l-18651 54018 41530 0z"/>
  <path id="8" class="fil1" d="M1279409 316005l-26299 0 -21652 -36270c-1936,-3356 -3840,-6195 -5712,-8551 -1871,-2356 -3743,-4291 -5679,-5808 -1904,-1517 -4001,-2614 -6292,-3324 -2259,-678 -4808,-1033 -7648,-1033l-9068 0 0 54986 -22394 0 0 -135528 44595 0c6390,0 12230,742 17586,2259 5357,1516 10036,3808 14005,6873 3969,3034 7067,6873 9293,11423 2259,4582 3356,9907 3356,16038 0,4775 -709,9196 -2097,13198 -1420,4001 -3453,7551 -6066,10680 -2614,3130 -5776,5776 -9455,7971 -3679,2226 -7841,3937 -12424,5131l0 354c2453,1388 4583,2937 6422,4583 1839,1678 3550,3388 5195,5163 1646,1774 3259,3775 4873,6002 1613,2226 3388,4840 5356,7776l24105 38077zm-82350 -117328l0 44143 18716 0c3453,0 6680,-549 9584,-1613 2936,-1065 5485,-2614 7615,-4647 2162,-2001 3808,-4486 5002,-7390 1226,-2904 1807,-6163 1807,-9745 0,-6518 -2033,-11584 -6131,-15263 -4098,-3646 -10003,-5485 -17683,-5485l-18910 0z"/>
  <path id="9" class="fil1" d="M1397738 316005l-29300 0 -47177 -61988c-1774,-2356 -2839,-3904 -3194,-4743l-387 0 0 66731 -22492 0 0 -135528 22492 0 0 63698 387 0c742,-1387 1807,-2936 3194,-4614l45467 -59084 26944 0 -53211 65021 57277 70507z"/>
  <polygon id="10" class="fil1" points="1489542,316005 1413452,316005 1413452,180477 1486509,180477 1486509,199644 1435944,199644 1435944,237980 1482539,237980 1482539,256954 1435944,256954 1435944,297031 1489542,297031 "/>
  <polygon id="11" class="fil1" points="1600610,199644 1561662,199644 1561662,316005 1539171,316005 1539171,199644 1500287,199644 1500287,180477 1600610,180477 "/>
  <path class="fil2" d="M70502 254424c8206,0 10258,0 14361,0 10259,1937 6155,0 14362,-1936 6155,7745 -6155,-3872 2051,3873l4104 1936c-8207,-32915 -12310,-50340 0,-83254 22568,-60021 88220,-96807 157976,-79382 14361,3872 24620,9681 36929,13553l-4103 -7744c8207,0 4103,-13553 4103,-21298 4104,-1936 -2051,-1936 6155,0 -6155,-7744 -30774,-13553 -43084,-17425 -18465,-1936 -34878,-3872 -53343,-1936 -63600,5808 -110788,44531 -133356,96807 -10259,25169 -18465,73573 -6155,96806z"/>
  <path class="fil2" d="M39727 91789c-2051,5808 -12310,21298 -16413,27106 -4103,7744 -12310,23233 -12310,32914l0 5809c6155,-7745 16413,-9681 12310,3872 6155,-1936 4103,-1936 10258,-5809 0,0 0,1937 0,1937l2052 1936c2052,-1936 4103,0 6155,-1936 16413,-46468 59497,-92935 104634,-110360 -2052,-13553 6154,-21298 -2052,-27106 -4104,-3872 -2052,-1936 -8207,-1936 -18465,1936 -61549,34850 -75910,50339l-16413 21298c-2052,0 -2052,0 -4104,1936z"/>
  <path class="fil2" d="M314647 49194c12310,3872 32826,17425 43084,25170 6155,5808 6155,7744 12310,9680l22568 -19361c-6155,-9681 -51291,-44531 -69755,-46467l-6156 5808c-4103,11617 8207,13553 -2051,15489l0 9681z"/>
 </g>
 <g id="Layer_x0020_3">
  <metadata id="CorelCorpID_1Corel-Layer"/>
  <path class="fil3" d="M158722 279594c6155,-3872 18465,-13553 22568,-19361 -2051,-7745 -8206,-9681 -12309,-19361 -28724,-58085 43084,-112296 98478,-77446 6155,3872 4104,3872 10258,7744 8207,-3872 18465,-13552 22568,-21297 -55394,-56148 -170286,-23234 -170286,63893 0,27106 12310,54212 28723,65828z"/>
  <path class="fil3" d="M136154 18216c6155,0 4103,-1936 8207,1936 8206,5808 0,13553 2052,27106 49239,-21298 121046,-25170 168234,1936l0 -9681c10258,-1936 -2052,-3872 2051,-15489l6156 -5808c-16414,-17425 -104634,-23234 -143615,-13553 -8207,0 -14362,1936 -22568,3872l-20517 9681c0,0 0,0 0,0z"/>
  <path class="fil3" d="M21263 300892l-2052 -5809c28723,0 12310,-7744 30774,-3872 -20516,-56148 -22568,-73573 -8206,-133593 -2052,1936 -4103,0 -6155,1936l-2052 -1936c0,0 0,-1937 0,-1937 -6155,3873 -4103,3873 -10258,5809 4103,-13553 -6155,-11617 -12310,-3872l0 -5809c-18464,19361 -12310,120041 8207,147147 0,0 0,1936 0,1936 0,0 2052,0 2052,0z"/>
  <path class="fil3" d="M21263 300892c0,13553 14361,25169 18464,36786 0,0 0,0 0,1937l18465 19361c4103,3872 4103,3872 8206,5808l22569 -19361c-4104,-9681 -26672,-25170 -38982,-54212 -18464,-3872 -2051,3872 -30774,3872l2052 5809z"/>
  <path class="fil3" d="M70502 254424c6155,25170 26671,58085 41033,67765 8206,-3872 20516,-13553 24619,-21297 -6155,-5809 -12310,-11617 -18465,-21298 -2051,-3872 -10258,-19361 -12309,-21297l-4104 -1936c-8206,-7745 4104,3872 -2051,-3873 -8207,1936 -4103,3873 -14362,1936 -4103,0 -6155,0 -14361,0z"/>
  <path class="fil3" d="M300285 109214c0,1936 6155,5808 10259,7745 4103,3872 8206,7744 12310,9680 8206,-3872 20516,-15489 22567,-21297 -6154,-5809 -28723,-23234 -38981,-25170 -8206,-1936 -2051,-1936 -6155,0 0,7745 4104,21298 -4103,21298l4103 7744z"/>
 </g>
</svg>
